<svg width="100" height="100" viewBox="0 0 100 100" fill="none" xmlns="http://www.w3.org/2000/svg">
<rect x="6" y="6" width="88" height="88" rx="8" fill="white"/>
<path fill-rule="evenodd" clip-rule="evenodd" d="M23.288 55.976L45.248 76.856L77.72 61.664L49.856 48.632L23.288 55.976Z" fill="#AFAFDE" stroke="black" stroke-width="0.87" stroke-linejoin="round"/>
<path fill-rule="evenodd" clip-rule="evenodd" d="M22.28 27.32L23.288 55.976L49.856 48.632L48.992 24.584L22.28 27.32Z" fill="#353564" stroke="black" stroke-width="0.87" stroke-linejoin="round"/>
<path fill-rule="evenodd" clip-rule="evenodd" d="M48.9919 24.584L76.5679 27.752L77.7199 61.664L49.8559 48.632L48.9919 24.584Z" fill="#E9E9FF" stroke="black" stroke-width="0.87" stroke-linejoin="round"/>
<path fill-rule="evenodd" clip-rule="evenodd" d="M22.28 27.32L43.664 32.864L76.568 27.752L48.992 24.584L22.28 27.32Z" fill="#19AEFF" stroke="black" stroke-width="0.87" stroke-linejoin="round"/>
<path fill-rule="evenodd" clip-rule="evenodd" d="M43.6641 32.864L45.2481 76.856L77.7201 61.664L76.5681 27.752L43.6641 32.864Z" fill="#0084C8" stroke="black" stroke-width="0.87" stroke-linejoin="round"/>
<path fill-rule="evenodd" clip-rule="evenodd" d="M22.28 27.32L43.664 32.864L45.248 76.856L23.288 55.976L22.28 27.32Z" fill="#19AEFF" stroke="black" stroke-width="0.87" stroke-linejoin="round"/>
<path d="M24.4399 35.744C24.4399 35.744 27.2479 29.984 33.0079 35.888C35.7439 38.768 37.7599 42.008 40.3519 37.688" stroke="black" stroke-width="1.31" stroke-miterlimit="5.58"/>
<path d="M24.4399 39.56C24.4399 39.56 27.2479 33.8 33.0079 39.704C35.7439 42.584 37.7599 45.752 40.3519 41.504" stroke="black" stroke-width="1.31" stroke-miterlimit="5.58"/>
<path d="M24.4399 43.304C24.4399 43.304 27.2479 37.544 33.0079 43.448C35.7439 46.328 37.7599 49.496 40.3519 45.248" stroke="black" stroke-width="1.31" stroke-miterlimit="5.58"/>
</svg>
